<?xml version="1.0" standalone="no"?><!DOCTYPE svg PUBLIC "-//W3C//DTD SVG 1.1//EN" "http://www.w3.org/Graphics/SVG/1.1/DTD/svg11.dtd"><svg class="icon" width="64px" height="64.00px" viewBox="0 0 1024 1024" version="1.1" xmlns="http://www.w3.org/2000/svg"><path fill="#e6e6e6" d="M722.807467 486.024533C730.0096 510.498133 733.866667 536.388267 733.866667 563.2c0 150.818133-122.248533 273.066667-273.066667 273.066667S187.733333 714.018133 187.733333 563.2 309.981867 290.133333 460.8 290.133333c28.245333 0 55.5008 4.283733 81.117867 12.253867l13.824 41.489067A238.1312 238.1312 0 0 0 460.8 324.266667C328.840533 324.266667 221.866667 431.240533 221.866667 563.2s106.973867 238.933333 238.933333 238.933333 238.933333-106.973867 238.933333-238.933333c0-32.1536-6.3488-62.8224-17.8688-90.8288l40.942934 13.653333zM558.523733 423.253333l-24.610133 24.6272a136.533333 136.533333 0 0 0-157.457067 222.702934l2.850134 2.833066c2.030933 2.048 4.4544 3.447467 7.031466 4.2496a136.533333 136.533333 0 0 0 193.757867-180.906666l24.900267-24.900267A169.864533 169.864533 0 0 1 631.466667 563.2c0 94.2592-76.407467 170.666667-170.666667 170.666667S290.133333 657.4592 290.133333 563.2s76.407467-170.666667 170.666667-170.666667c36.352 0 70.0416 11.3664 97.723733 30.72zM460.8 563.2m-51.2 0a51.2 51.2 0 1 0 102.4 0 51.2 51.2 0 1 0-102.4 0ZM620.782933 432.674133l-114.6368 114.6368a17.066667 17.066667 0 1 1-24.132266-24.132266l114.6368-114.6368-26.8288-80.503467a17.066667 17.066667 0 0 1 4.113066-17.476267l93.696-93.696a17.066667 17.066667 0 0 1 28.2624 6.673067l27.477334 82.432 82.414933 27.460267a17.066667 17.066667 0 0 1 6.656 28.2624l-93.696 93.696a17.066667 17.066667 0 0 1-17.4592 4.113066l-80.503467-26.8288z m-18.090666-102.570666l12.066133 36.181333 72.3968-72.3968-12.066133-36.1984-72.3968 72.3968z m60.330666 84.48l36.215467 12.049066 72.3968-72.3968-36.1984-12.0832-72.413867 72.413867z" /></svg>