<?xml version="1.0" standalone="no"?><!DOCTYPE svg PUBLIC "-//W3C//DTD SVG 1.1//EN" "http://www.w3.org/Graphics/SVG/1.1/DTD/svg11.dtd"><svg class="icon" width="64px" height="64.00px" viewBox="0 0 1024 1024" version="1.1" xmlns="http://www.w3.org/2000/svg"><path fill="#e6e6e6" d="M998.263901 738.657777l-0.661055-0.690731a62.933205 62.933205 0 0 0-44.157621-18.092017H938.001519v-15.399704c0-34.676708-28.053883-62.799153-62.729568-62.883064l-15.752744-0.042979v-15.555246a62.959811 62.959811 0 0 0-18.401055-44.482008l-97.713267-97.71429c36.661918-129.796922 1.05605-269.962985-95.924532-366.94459C576.621657 46.009801 482.415254 6.979958 382.207171 6.979958c-100.235712 0-194.469745 39.029844-265.313091 109.901842C46.021058 187.754823 6.963585 281.931551 6.963585 382.182612c0 100.208083 39.014494 194.427789 109.930495 265.299788 70.815717 70.84437 165.022121 109.887516 265.22918 109.887516 34.674661 0 68.702594-4.706176 101.686757-13.990614l255.156798 255.211033a62.918879 62.918879 0 0 0 44.480984 18.429707c1.113355 0 2.255362-0.028653 3.395324-0.098237l161.950162-8.709341c32.084678-1.703801 57.699005-27.334501 59.432481-59.41611l8.720598-161.964488a62.868737 62.868737 0 0 0-18.682463-48.174089z m-52.837287 206.771907l-161.978815 8.692969-282.870943-282.913923c-37.886813 15.513291-78.142575 23.24947-118.453596 23.24947-79.890379 0-159.837039-30.477068-220.790151-91.457808-121.976832-121.976832-121.934876-319.701707 0.028653-441.649886 60.994044-60.981764 140.928425-91.472135 220.845409-91.472135 79.903681 0 159.823736 30.490371 220.804477 91.457808 91.725914 91.697262 114.410521 226.227989 68.236991 339.22942l125.401831 125.428437v78.284814l78.466962 0.196475v78.31142l78.32677-0.027629 0.675381 0.69073-8.692969 161.979838z"  /><path fill="#e6e6e6" d="M289.862158 404.092577c30.519023 0 59.205308-11.877491 80.790886-33.464092 21.586601-21.557949 33.449766-50.25856 33.449766-80.777584 0.028653-30.519023-11.864188-59.206332-33.449766-80.76428-21.585578-21.585578-50.244234-33.464092-80.763257-33.464092-30.50572 0-59.205308 11.892841-80.79191 33.491721-44.53829 44.523964-44.566942 116.989247-0.027629 161.527538 21.586601 21.586601 50.272886 33.450789 80.79191 33.450789zM238.757325 238.746069c13.653947-13.66725 31.802246-21.204909 51.133485-21.204909 19.302586 0 37.450885 7.524355 51.119159 21.190582 13.638598 13.639621 21.16193 31.801223 21.16193 51.119159 0 19.316912-7.523332 37.465212-21.16193 51.118136-13.696926 13.66725-31.844202 21.205932-51.146788 21.205932-19.332262 0-37.480561-7.524355-51.146788-21.177279-28.152121-28.180773-28.152121-74.043219 0.040932-102.251621z"  /><path fill="#e6e6e6" d="M577.945813 548.260783c85.936059-101.138266 81.370076-253.379318-14.089875-348.853596-36.619962-36.59131-82.737211-61.078978-133.37644-70.801391-11.300348-2.197034-22.373522 5.227038-24.530647 16.61232-2.184754 11.369932 5.227038 22.374545 16.612319 24.530647 42.381165 8.172107 81.00271 28.674006 111.648623 59.290242 84.115601 84.130951 84.115601 221.029604 0 305.147252-40.748995 40.761274-94.939089 63.220754-152.595115 63.220754-57.627373 0-111.817468-22.45948-152.566463-63.220754-30.644889-30.645913-51.145765-69.253132-59.275916-111.63532-2.184754-11.369932-13.20267-18.767398-24.531671-16.626646-11.384259 2.170428-18.839029 13.175041-16.654275 24.531671 9.750042 50.681185 34.211104 96.798433 70.801391 133.36109 48.680625 48.694951 113.410753 75.507567 182.225911 75.507567 61.811664 0 120.258704-21.655162 166.769924-61.319455l288.760059 288.746757a20.859032 20.859032 0 0 0 14.822561 6.156197c5.36723 0 10.735484-2.042515 14.808234-6.156197 8.186433-8.17313 8.186433-21.446408 0-29.631819L577.945813 548.260783z"  /></svg>