<?xml version="1.0" standalone="no"?><!DOCTYPE svg PUBLIC "-//W3C//DTD SVG 1.1//EN" "http://www.w3.org/Graphics/SVG/1.1/DTD/svg11.dtd"><svg class="icon" width="64px" height="64.00px" viewBox="0 0 1024 1024" version="1.1" xmlns="http://www.w3.org/2000/svg"><path fill="#e6e6e6" d="M974.848 381.952h-350.72V31.232c0-7.68 6.144-13.312 13.312-13.312s13.312 6.144 13.312 13.312v323.584h323.584c7.68 0 13.312 6.144 13.312 13.312s-5.632 13.824-12.8 13.824"  /><path fill="#e6e6e6" d="M740.864 346.112h-72.192V147.968h72.192v198.144z m-45.056-27.136h17.92V175.104h-17.92v143.872zM830.976 346.112h-72.192v-261.12h72.192v261.12z m-45.056-27.136h17.92V112.128h-17.92v206.848zM920.576 346.112h-72.192V210.944h72.192v135.168z m-45.056-27.136h17.92V238.08H875.52v80.896zM655.36 560.64h-28.672c-59.392-1.024-112.128 17.408-155.648 56.832-40.96 35.84-65.536 81.408-71.168 136.704-1.536 22.016 1.024 43.52 5.12 65.536 1.536 10.752 1.536 13.312-10.24 12.8-29.184-1.536-57.856-4.096-86.528-9.216-15.872-2.56-29.184-2.56-44.544 5.632-20.992 11.776-42.496 22.016-64.512 32.768-3.584 1.536-6.656 2.56-12.8 5.12 1.536-5.632 1.536-9.216 2.56-12.8 6.656-19.968 13.312-40.96 19.968-60.928 3.584-9.216 0-12.8-5.632-17.408-31.232-22.528-57.856-51.2-76.288-85.504-37.888-71.168-26.624-159.232 25.088-222.72 47.616-56.832 109.568-88.064 183.296-97.28 61.952-8.192 122.368 0 179.2 26.624 65.536 31.232 114.688 77.824 135.68 150.016 1.024 1.536 1.536 5.12 1.536 6.656 3.072 2.56 3.584 4.096 3.584 7.168z m-211.968-41.472c1.024 16.896 14.848 31.232 38.4 32.768 17.408 1.024 31.744-14.336 31.744-31.744s-13.312-31.744-31.744-32.768c-18.944-1.024-38.4 14.848-38.4 31.744z m-119.808 0c0-18.432-13.312-31.744-31.744-32.768-19.456 0-37.888 15.872-38.4 31.744-1.024 16.896 19.456 33.28 38.4 32.768 18.432 0 31.744-13.312 31.744-31.744z"  /><path fill="#e6e6e6" d="M802.816 996.352c-19.456-10.24-36.864-18.432-52.736-29.184-14.848-10.24-28.672-11.776-46.08-7.68-72.704 18.432-141.824 6.656-203.776-34.304-48.64-31.744-79.36-76.288-87.04-134.656-5.632-49.664 7.68-95.744 39.424-134.144 40.96-49.664 94.72-76.288 158.208-83.968 71.168-8.192 135.68 7.68 192 52.736 40.96 32.768 68.096 73.728 73.728 127.488 5.12 43.52-9.216 82.944-35.84 116.224-14.336 17.408-31.232 33.28-48.64 49.664-6.656 5.632-9.216 11.776-5.632 20.992 5.632 15.872 10.24 31.744 14.336 47.616 0.512 1.024 0.512 4.096 2.048 9.216z m-231.936-263.168c15.872 0 30.208-11.776 30.208-25.088 0-13.312-13.312-26.112-29.184-26.112-12.8-1.024-26.624 13.312-26.624 26.112-0.512 11.776 13.824 25.088 25.6 25.088z m148.992 0c14.848 0 31.232-12.8 31.232-25.088 0-12.8-15.872-26.112-31.232-26.112-12.8 0-26.112 13.312-26.112 26.112 1.024 12.8 13.824 25.088 26.112 25.088z"  /></svg>